<svg width="60" height="60" viewBox="0 0 60 60" fill="none" xmlns="http://www.w3.org/2000/svg">
<mask id="mask0_768_2303" style="mask-type:luminance" maskUnits="userSpaceOnUse" x="6" y="14" width="48" height="32">
<path d="M53.4825 14H6V45.2375H53.4825V14Z" fill="white"/>
</mask>
<g mask="url(#mask0_768_2303)">
<path d="M42.3375 21.1251C42.3375 18.7626 43.5825 16.6851 45.45 15.5151C45.315 15.4476 45.1875 15.3801 45.0525 15.3201C43.275 14.4726 41.295 14.0001 39.195 14.0001C37.095 14.0001 35.115 14.4726 33.3375 15.3126C31.875 16.0101 30.555 16.9551 29.43 18.1026C28.305 16.9551 26.985 16.0101 25.5225 15.3126C23.745 14.4651 21.765 13.9926 19.665 13.9926C17.565 13.9926 15.585 14.4651 13.8075 15.3051C9.195 17.5101 6 22.2126 6 27.6651V41.3301C6 43.4901 7.7475 45.2376 9.9075 45.2376C12.0675 45.2376 13.815 43.4901 13.815 41.3301V28.0626C13.8075 27.9276 13.8 27.8001 13.8 27.6576C13.8 27.5151 13.8 27.3876 13.815 27.2526C14.0175 24.2001 16.5675 21.7851 19.6725 21.7851C22.7775 21.7851 25.335 24.2151 25.53 27.2826V27.3501C25.53 27.3501 25.53 27.3501 25.53 27.3576C25.53 27.4551 25.5375 27.5601 25.5375 27.6576C25.5375 27.7551 25.5375 27.8601 25.53 27.9576C25.53 27.9576 25.53 27.9576 25.53 27.9651C25.53 27.9876 25.53 28.0101 25.53 28.0326V41.3226C25.53 43.4826 27.2775 45.2301 29.4375 45.2301C31.5975 45.2301 33.345 43.4826 33.345 41.3226V28.0551C33.345 28.0551 33.345 28.0101 33.345 27.9876C33.345 27.8751 33.3375 27.7701 33.3375 27.6576C33.3375 27.5451 33.3375 27.4326 33.345 27.3276C33.345 27.3051 33.345 27.2826 33.345 27.2601C33.5475 24.2076 36.0975 21.7926 39.2025 21.7926C40.4625 21.7926 41.625 22.1901 42.585 22.8651C42.435 22.3101 42.3525 21.7251 42.3525 21.1251H42.3375Z" fill="black"/>
<path d="M48.9527 27.7401C47.4302 27.7401 46.0277 27.2226 44.9102 26.3601C44.9777 26.6601 45.0227 26.9751 45.0452 27.2901C45.0527 27.4101 45.0602 27.5376 45.0602 27.6651C45.0602 27.7926 45.0602 27.9201 45.0452 28.0401V41.3301C45.0452 43.4901 46.7927 45.2376 48.9527 45.2376C51.1127 45.2376 52.8602 43.4901 52.8602 41.3301V27.6651C52.8602 27.2676 52.8452 26.8851 52.8077 26.4951C51.7202 27.2751 50.3927 27.7326 48.9527 27.7326V27.7401Z" fill="black"/>
<path d="M48.9519 25.655C51.4537 25.655 53.4819 23.6268 53.4819 21.125C53.4819 18.6231 51.4537 16.595 48.9519 16.595C46.45 16.595 44.4219 18.6231 44.4219 21.125C44.4219 23.6268 46.45 25.655 48.9519 25.655Z" fill="#E84428"/>
</g>
</svg>

